<svg xmlns="http://www.w3.org/2000/svg" xmlns:xlink="http://www.w3.org/1999/xlink" width="500" zoomAndPan="magnify" viewBox="0 0 375 374.999991" height="500" preserveAspectRatio="xMidYMid meet" version="1.0"><defs><g/><clipPath id="id1"><path d="M 98.46875 113 L 117 113 L 117 164 L 98.46875 164 Z M 98.46875 113 " clip-rule="nonzero"/></clipPath><clipPath id="id2"><path d="M 151 187 L 175 187 L 175 197.167969 L 151 197.167969 Z M 151 187 " clip-rule="nonzero"/></clipPath><clipPath id="id3"><path d="M 174 79 L 224.46875 79 L 224.46875 98 L 174 98 Z M 174 79 " clip-rule="nonzero"/></clipPath><clipPath id="id4"><path d="M 172.277344 154 L 198 154 L 198 169 L 172.277344 169 Z M 172.277344 154 " clip-rule="nonzero"/></clipPath><clipPath id="id5"><path d="M 209 175 L 212 175 L 212 196.921875 L 209 196.921875 Z M 209 175 " clip-rule="nonzero"/></clipPath><clipPath id="id6"><path d="M 204 120.421875 L 219 120.421875 L 219 148 L 204 148 Z M 204 120.421875 " clip-rule="nonzero"/></clipPath></defs><g clip-path="url(#id1)"><path fill="#2c3587" d="M 108.175781 120.273438 C 108.175781 121.957031 106.875 123.332031 105.230469 123.453125 C 105.152344 123.460938 105.074219 123.46875 104.992188 123.46875 C 104.878906 123.46875 104.769531 123.460938 104.660156 123.449219 C 104.644531 123.445312 104.632812 123.445312 104.621094 123.441406 C 104.523438 123.429688 104.425781 123.417969 104.328125 123.394531 L 104.316406 123.394531 C 104.105469 123.347656 103.902344 123.277344 103.710938 123.195312 C 102.59375 122.699219 101.8125 121.578125 101.8125 120.273438 C 101.8125 118.511719 103.234375 117.082031 104.992188 117.082031 C 106.75 117.082031 108.175781 118.511719 108.175781 120.273438 Z M 98.53125 120.273438 C 98.53125 122.445312 99.59375 124.363281 101.226562 125.542969 C 101.199219 125.695312 101.183594 125.855469 101.183594 126.015625 C 101.183594 138.847656 104.625 151.425781 111.140625 162.390625 C 111.9375 163.738281 113.675781 164.179688 115.019531 163.375 C 115.910156 162.84375 116.402344 161.898438 116.402344 160.933594 C 116.402344 160.4375 116.273438 159.9375 116.003906 159.480469 C 110.09375 149.53125 106.933594 138.132812 106.851562 126.488281 C 109.515625 125.6875 111.457031 123.207031 111.457031 120.273438 C 111.457031 116.691406 108.5625 113.789062 104.992188 113.789062 C 101.421875 113.789062 98.53125 116.691406 98.53125 120.273438 " fill-opacity="1" fill-rule="nonzero"/></g><path fill="#f1ad53" d="M 122.152344 169.214844 C 122.152344 169.285156 122.144531 169.351562 122.140625 169.421875 C 122.136719 169.496094 122.125 169.570312 122.113281 169.644531 L 122.109375 169.660156 C 122.097656 169.730469 122.082031 169.796875 122.0625 169.863281 L 122.054688 169.894531 C 122.039062 169.957031 122.015625 170.019531 121.996094 170.082031 C 121.988281 170.09375 121.984375 170.105469 121.980469 170.117188 C 121.957031 170.175781 121.933594 170.234375 121.90625 170.289062 C 121.898438 170.304688 121.890625 170.320312 121.886719 170.332031 C 121.859375 170.386719 121.828125 170.4375 121.800781 170.488281 C 121.789062 170.503906 121.78125 170.523438 121.769531 170.535156 C 121.738281 170.585938 121.707031 170.632812 121.675781 170.675781 C 121.664062 170.695312 121.648438 170.710938 121.636719 170.730469 C 121.601562 170.773438 121.570312 170.8125 121.535156 170.855469 C 121.519531 170.871094 121.5 170.890625 121.484375 170.910156 C 121.449219 170.949219 121.414062 170.984375 121.378906 171.019531 C 121.359375 171.039062 121.335938 171.054688 121.316406 171.074219 C 121.28125 171.105469 121.242188 171.136719 121.207031 171.167969 C 121.183594 171.1875 121.15625 171.207031 121.132812 171.222656 C 121.09375 171.25 121.058594 171.277344 121.019531 171.300781 C 120.992188 171.320312 120.964844 171.335938 120.933594 171.355469 C 120.898438 171.375 120.859375 171.398438 120.820312 171.417969 C 120.789062 171.4375 120.757812 171.449219 120.722656 171.464844 C 120.6875 171.484375 120.648438 171.5 120.613281 171.515625 C 120.574219 171.53125 120.535156 171.542969 120.5 171.558594 C 120.460938 171.574219 120.425781 171.585938 120.390625 171.597656 C 120.347656 171.609375 120.304688 171.621094 120.261719 171.628906 C 120.226562 171.636719 120.195312 171.648438 120.160156 171.65625 C 120.109375 171.664062 120.058594 171.671875 120.011719 171.675781 C 119.980469 171.683594 119.949219 171.6875 119.917969 171.691406 C 119.84375 171.699219 119.769531 171.703125 119.691406 171.703125 L 119.671875 171.703125 C 119.648438 171.703125 119.621094 171.699219 119.597656 171.699219 C 119.546875 171.699219 119.492188 171.695312 119.441406 171.691406 C 119.363281 171.683594 119.289062 171.671875 119.21875 171.660156 C 118.066406 171.445312 117.191406 170.433594 117.191406 169.214844 C 117.191406 167.84375 118.300781 166.730469 119.671875 166.730469 C 121.042969 166.730469 122.152344 167.84375 122.152344 169.214844 Z M 114.636719 169.214844 C 114.636719 172.007812 116.890625 174.269531 119.671875 174.269531 C 119.773438 174.269531 119.875 174.265625 119.976562 174.257812 C 127.078125 181.976562 135.9375 188.125 145.605469 192.035156 C 147.054688 192.621094 148.703125 191.917969 149.289062 190.460938 C 149.429688 190.113281 149.492188 189.753906 149.492188 189.402344 C 149.492188 188.277344 148.824219 187.210938 147.722656 186.765625 C 138.976562 183.226562 130.949219 177.699219 124.46875 170.761719 C 124.621094 170.273438 124.707031 169.757812 124.707031 169.214844 C 124.707031 166.425781 122.453125 164.164062 119.671875 164.164062 C 116.890625 164.164062 114.636719 166.425781 114.636719 169.214844 " fill-opacity="1" fill-rule="nonzero"/><g clip-path="url(#id2)"><path fill="#f1ad53" d="M 154.148438 192.242188 C 154.148438 191.070312 155.09375 190.121094 156.261719 190.121094 C 156.601562 190.121094 156.917969 190.199219 157.203125 190.34375 C 157.375 190.429688 157.53125 190.535156 157.671875 190.660156 L 157.691406 190.679688 C 157.78125 190.765625 157.867188 190.859375 157.945312 190.957031 C 157.957031 190.976562 157.96875 190.992188 157.980469 191.011719 C 158 191.035156 158.019531 191.066406 158.039062 191.09375 C 158.054688 191.117188 158.070312 191.144531 158.085938 191.171875 C 158.105469 191.203125 158.125 191.238281 158.144531 191.273438 C 158.160156 191.3125 158.179688 191.347656 158.195312 191.386719 C 158.207031 191.410156 158.214844 191.433594 158.226562 191.457031 C 158.238281 191.492188 158.253906 191.53125 158.265625 191.570312 C 158.273438 191.589844 158.28125 191.609375 158.285156 191.625 C 158.304688 191.683594 158.316406 191.742188 158.332031 191.800781 C 158.332031 191.816406 158.335938 191.832031 158.339844 191.847656 C 158.347656 191.894531 158.355469 191.945312 158.359375 191.992188 C 158.363281 192.011719 158.363281 192.027344 158.367188 192.046875 C 158.371094 192.109375 158.375 192.175781 158.375 192.238281 L 158.375 192.242188 C 158.375 192.652344 158.257812 193.039062 158.054688 193.367188 C 157.679688 193.960938 157.019531 194.363281 156.261719 194.363281 C 156.195312 194.363281 156.132812 194.359375 156.070312 194.351562 C 156.007812 194.347656 155.949219 194.339844 155.890625 194.328125 C 154.898438 194.148438 154.148438 193.285156 154.148438 192.242188 Z M 156.261719 187.929688 C 153.890625 187.929688 151.964844 189.863281 151.964844 192.242188 C 151.964844 194.621094 153.890625 196.550781 156.261719 196.550781 C 157.113281 196.550781 157.902344 196.300781 158.570312 195.875 C 163.007812 196.734375 167.558594 197.171875 172.113281 197.171875 C 173.675781 197.171875 174.945312 195.898438 174.945312 194.332031 C 174.945312 192.761719 173.675781 191.492188 172.113281 191.492188 C 168.089844 191.492188 164.066406 191.121094 160.140625 190.390625 C 159.453125 188.9375 157.972656 187.929688 156.261719 187.929688 " fill-opacity="1" fill-rule="nonzero"/></g><path fill="#2c3587" d="M 156.699219 82.046875 C 155.511719 83.238281 153.625 83.289062 152.375 82.207031 C 152.3125 82.15625 152.253906 82.105469 152.199219 82.046875 C 152.117188 81.964844 152.042969 81.882812 151.972656 81.796875 L 151.949219 81.765625 C 151.890625 81.6875 151.832031 81.609375 151.777344 81.527344 L 151.769531 81.515625 C 151.65625 81.332031 151.558594 81.140625 151.480469 80.945312 C 151.042969 79.800781 151.277344 78.457031 152.199219 77.53125 C 153.441406 76.285156 155.457031 76.285156 156.699219 77.53125 C 157.941406 78.78125 157.941406 80.800781 156.699219 82.046875 Z M 149.878906 75.203125 C 148.347656 76.738281 147.746094 78.851562 148.070312 80.839844 C 147.941406 80.933594 147.820312 81.035156 147.707031 81.148438 C 138.664062 90.222656 132.230469 101.554688 129.109375 113.929688 C 128.722656 115.449219 129.640625 116.996094 131.15625 117.378906 C 132.160156 117.632812 133.175781 117.316406 133.855469 116.632812 C 134.203125 116.285156 134.464844 115.835938 134.597656 115.324219 C 137.429688 104.09375 143.234375 93.792969 151.382812 85.5 C 153.832031 86.824219 156.949219 86.449219 159.019531 84.375 C 161.542969 81.84375 161.542969 77.738281 159.019531 75.207031 C 156.496094 72.671875 152.402344 72.671875 149.878906 75.203125 " fill-opacity="1" fill-rule="nonzero"/><path fill="#54afe6" d="M 132.082031 126.570312 C 132.035156 126.617188 131.980469 126.660156 131.929688 126.703125 C 131.875 126.753906 131.8125 126.800781 131.753906 126.84375 L 131.738281 126.851562 C 131.683594 126.890625 131.621094 126.929688 131.5625 126.964844 L 131.539062 126.976562 C 131.480469 127.011719 131.421875 127.039062 131.363281 127.066406 L 131.328125 127.085938 C 131.269531 127.109375 131.210938 127.132812 131.152344 127.152344 C 131.136719 127.15625 131.121094 127.164062 131.105469 127.167969 C 131.050781 127.1875 130.992188 127.203125 130.9375 127.21875 C 130.917969 127.222656 130.898438 127.226562 130.882812 127.230469 C 130.828125 127.246094 130.769531 127.253906 130.714844 127.261719 C 130.695312 127.265625 130.671875 127.269531 130.652344 127.273438 C 130.597656 127.28125 130.546875 127.285156 130.492188 127.289062 C 130.46875 127.289062 130.441406 127.292969 130.417969 127.292969 C 130.367188 127.292969 130.316406 127.292969 130.265625 127.292969 C 130.238281 127.292969 130.210938 127.289062 130.183594 127.289062 C 130.132812 127.285156 130.085938 127.28125 130.039062 127.277344 C 130.007812 127.273438 129.976562 127.269531 129.945312 127.265625 C 129.902344 127.257812 129.859375 127.25 129.8125 127.242188 C 129.78125 127.234375 129.746094 127.226562 129.714844 127.214844 C 129.671875 127.207031 129.632812 127.195312 129.589844 127.179688 C 129.554688 127.171875 129.519531 127.15625 129.484375 127.144531 C 129.449219 127.132812 129.410156 127.117188 129.371094 127.101562 C 129.335938 127.085938 129.300781 127.070312 129.261719 127.050781 C 129.226562 127.035156 129.191406 127.019531 129.160156 127 C 129.121094 126.980469 129.082031 126.957031 129.046875 126.933594 C 129.015625 126.914062 128.984375 126.898438 128.953125 126.878906 C 128.914062 126.851562 128.871094 126.820312 128.832031 126.789062 C 128.808594 126.769531 128.78125 126.753906 128.757812 126.734375 C 128.703125 126.6875 128.644531 126.636719 128.589844 126.582031 L 128.574219 126.570312 C 128.558594 126.550781 128.542969 126.53125 128.527344 126.511719 C 128.488281 126.472656 128.453125 126.433594 128.421875 126.394531 C 128.371094 126.335938 128.328125 126.277344 128.285156 126.214844 C 127.621094 125.246094 127.71875 123.910156 128.574219 123.050781 C 129.542969 122.078125 131.113281 122.078125 132.082031 123.050781 C 133.050781 124.023438 133.050781 125.597656 132.082031 126.570312 Z M 126.769531 121.234375 C 124.800781 123.210938 124.800781 126.410156 126.769531 128.382812 C 126.839844 128.453125 126.914062 128.523438 126.988281 128.589844 C 126.570312 139.085938 128.503906 149.714844 132.582031 159.339844 C 133.195312 160.78125 134.855469 161.453125 136.296875 160.839844 C 136.640625 160.695312 136.941406 160.488281 137.1875 160.234375 C 137.980469 159.441406 138.257812 158.210938 137.792969 157.113281 C 134.101562 148.410156 132.320312 138.808594 132.628906 129.304688 C 133.085938 129.070312 133.511719 128.761719 133.890625 128.382812 C 135.855469 126.410156 135.855469 123.210938 133.890625 121.234375 C 131.921875 119.265625 128.734375 119.265625 126.769531 121.234375 " fill-opacity="1" fill-rule="nonzero"/><path fill="#f1ad53" d="M 138.476562 165.542969 C 139.304688 164.714844 140.640625 164.714844 141.46875 165.542969 C 141.707031 165.785156 141.875 166.070312 141.976562 166.371094 C 142.035156 166.550781 142.070312 166.738281 142.082031 166.925781 L 142.082031 166.953125 C 142.089844 167.082031 142.082031 167.207031 142.066406 167.332031 C 142.0625 167.351562 142.058594 167.375 142.058594 167.394531 C 142.050781 167.425781 142.046875 167.460938 142.039062 167.496094 C 142.03125 167.523438 142.023438 167.554688 142.015625 167.582031 C 142.007812 167.621094 141.996094 167.65625 141.984375 167.695312 C 141.972656 167.734375 141.957031 167.773438 141.941406 167.8125 C 141.933594 167.835938 141.925781 167.859375 141.914062 167.882812 C 141.898438 167.917969 141.882812 167.957031 141.863281 167.992188 C 141.855469 168.011719 141.847656 168.027344 141.835938 168.046875 C 141.808594 168.097656 141.777344 168.152344 141.746094 168.199219 C 141.738281 168.214844 141.726562 168.226562 141.71875 168.238281 C 141.691406 168.277344 141.664062 168.320312 141.632812 168.359375 C 141.621094 168.371094 141.609375 168.386719 141.597656 168.402344 C 141.558594 168.449219 141.515625 168.5 141.46875 168.542969 L 141.46875 168.546875 C 141.175781 168.835938 140.820312 169.023438 140.445312 169.109375 C 139.761719 169.269531 139.011719 169.082031 138.476562 168.546875 C 138.429688 168.5 138.390625 168.449219 138.347656 168.402344 C 138.308594 168.355469 138.273438 168.304688 138.238281 168.257812 C 137.664062 167.429688 137.742188 166.285156 138.476562 165.542969 Z M 143.011719 164 C 141.332031 162.3125 138.613281 162.3125 136.933594 163.996094 C 135.257812 165.679688 135.257812 168.410156 136.933594 170.089844 C 137.535156 170.695312 138.269531 171.082031 139.042969 171.25 C 141.574219 175.007812 144.484375 178.542969 147.707031 181.773438 C 148.8125 182.882812 150.605469 182.882812 151.710938 181.773438 C 152.816406 180.664062 152.816406 178.867188 151.710938 177.757812 C 148.863281 174.902344 146.28125 171.789062 144.019531 168.488281 C 144.558594 166.972656 144.222656 165.210938 143.011719 164 " fill-opacity="1" fill-rule="nonzero"/><g clip-path="url(#id3)"><path fill="#f0401e" d="M 217.953125 89.4375 C 216.277344 89.4375 214.90625 88.132812 214.785156 86.480469 C 214.777344 86.402344 214.773438 86.324219 214.773438 86.242188 C 214.773438 86.128906 214.777344 86.019531 214.789062 85.90625 C 214.792969 85.894531 214.792969 85.882812 214.796875 85.867188 C 214.808594 85.769531 214.820312 85.671875 214.84375 85.578125 L 214.84375 85.5625 C 214.890625 85.351562 214.957031 85.148438 215.042969 84.957031 C 215.535156 83.832031 216.652344 83.050781 217.953125 83.050781 C 219.710938 83.050781 221.136719 84.480469 221.136719 86.242188 C 221.136719 88.007812 219.710938 89.4375 217.953125 89.4375 Z M 217.953125 79.757812 C 215.789062 79.757812 213.878906 80.824219 212.703125 82.464844 C 212.546875 82.4375 212.390625 82.421875 212.226562 82.421875 C 199.4375 82.421875 186.902344 85.875 175.972656 92.40625 C 174.628906 93.210938 174.1875 94.953125 174.988281 96.300781 C 175.519531 97.195312 176.457031 97.6875 177.421875 97.6875 C 177.914062 97.6875 178.417969 97.558594 178.871094 97.289062 C 188.789062 91.355469 200.152344 88.1875 211.761719 88.105469 C 212.558594 90.777344 215.027344 92.730469 217.953125 92.730469 C 221.523438 92.730469 224.417969 89.824219 224.417969 86.242188 C 224.417969 82.664062 221.523438 79.757812 217.953125 79.757812 " fill-opacity="1" fill-rule="nonzero"/></g><path fill="#2c3587" d="M 169.167969 103.457031 C 169.097656 103.457031 169.03125 103.449219 168.960938 103.445312 C 168.886719 103.4375 168.8125 103.429688 168.742188 103.417969 L 168.722656 103.414062 C 168.65625 103.402344 168.585938 103.386719 168.519531 103.367188 L 168.492188 103.359375 C 168.429688 103.339844 168.367188 103.320312 168.304688 103.296875 C 168.292969 103.292969 168.28125 103.289062 168.269531 103.285156 C 168.207031 103.261719 168.152344 103.234375 168.097656 103.210938 C 168.082031 103.203125 168.066406 103.195312 168.054688 103.1875 C 168 103.160156 167.949219 103.132812 167.898438 103.101562 C 167.882812 103.09375 167.867188 103.082031 167.851562 103.074219 C 167.800781 103.042969 167.753906 103.011719 167.710938 102.976562 C 167.691406 102.964844 167.675781 102.953125 167.65625 102.9375 C 167.613281 102.90625 167.574219 102.871094 167.535156 102.835938 C 167.515625 102.820312 167.496094 102.804688 167.480469 102.785156 C 167.441406 102.753906 167.40625 102.714844 167.371094 102.679688 C 167.351562 102.660156 167.332031 102.636719 167.3125 102.617188 C 167.28125 102.582031 167.25 102.546875 167.222656 102.507812 C 167.203125 102.484375 167.183594 102.457031 167.164062 102.433594 C 167.140625 102.398438 167.113281 102.359375 167.089844 102.320312 C 167.070312 102.292969 167.054688 102.261719 167.035156 102.234375 C 167.015625 102.199219 166.992188 102.160156 166.96875 102.121094 C 166.953125 102.089844 166.9375 102.054688 166.921875 102.023438 C 166.90625 101.984375 166.886719 101.949219 166.871094 101.910156 C 166.855469 101.875 166.84375 101.835938 166.832031 101.796875 C 166.816406 101.761719 166.804688 101.726562 166.792969 101.6875 C 166.78125 101.644531 166.769531 101.601562 166.761719 101.5625 C 166.753906 101.527344 166.742188 101.492188 166.734375 101.457031 C 166.726562 101.40625 166.71875 101.355469 166.710938 101.304688 C 166.707031 101.277344 166.703125 101.246094 166.699219 101.214844 C 166.691406 101.140625 166.6875 101.066406 166.6875 100.988281 L 166.6875 100.96875 C 166.6875 100.941406 166.691406 100.917969 166.691406 100.894531 C 166.691406 100.839844 166.695312 100.789062 166.699219 100.734375 C 166.707031 100.660156 166.71875 100.585938 166.730469 100.511719 C 166.945312 99.355469 167.953125 98.480469 169.167969 98.480469 C 170.535156 98.480469 171.644531 99.59375 171.644531 100.96875 C 171.644531 102.34375 170.535156 103.457031 169.167969 103.457031 Z M 169.167969 95.917969 C 166.386719 95.917969 164.128906 98.175781 164.128906 100.96875 C 164.128906 101.070312 164.132812 101.171875 164.140625 101.273438 C 156.445312 108.398438 150.320312 117.285156 146.421875 126.984375 C 145.835938 128.4375 146.539062 130.089844 147.988281 130.675781 C 148.335938 130.816406 148.691406 130.886719 149.046875 130.886719 C 150.167969 130.886719 151.226562 130.210938 151.671875 129.105469 C 155.199219 120.332031 160.707031 112.28125 167.625 105.777344 C 168.109375 105.933594 168.628906 106.019531 169.167969 106.019531 C 171.949219 106.019531 174.203125 103.757812 174.203125 100.96875 C 174.203125 98.175781 171.949219 95.917969 169.167969 95.917969 " fill-opacity="1" fill-rule="nonzero"/><path fill="#f1ad53" d="M 146.214844 135.550781 C 147.382812 135.550781 148.328125 136.503906 148.328125 137.675781 C 148.328125 138.011719 148.246094 138.332031 148.105469 138.617188 C 148.023438 138.789062 147.914062 138.945312 147.789062 139.085938 L 147.769531 139.109375 C 147.6875 139.199219 147.59375 139.285156 147.492188 139.363281 C 147.476562 139.375 147.457031 139.386719 147.441406 139.398438 C 147.414062 139.417969 147.386719 139.4375 147.359375 139.457031 C 147.332031 139.472656 147.308594 139.488281 147.28125 139.503906 C 147.246094 139.523438 147.214844 139.542969 147.179688 139.5625 C 147.140625 139.578125 147.105469 139.597656 147.066406 139.617188 C 147.042969 139.625 147.019531 139.632812 147 139.644531 C 146.960938 139.660156 146.921875 139.671875 146.882812 139.6875 C 146.863281 139.691406 146.84375 139.699219 146.828125 139.703125 C 146.769531 139.722656 146.710938 139.734375 146.652344 139.75 C 146.636719 139.753906 146.625 139.753906 146.609375 139.757812 C 146.558594 139.765625 146.511719 139.773438 146.460938 139.78125 C 146.445312 139.78125 146.425781 139.785156 146.40625 139.785156 C 146.34375 139.792969 146.28125 139.796875 146.214844 139.796875 C 145.800781 139.796875 145.417969 139.675781 145.09375 139.46875 C 144.496094 139.097656 144.101562 138.433594 144.101562 137.675781 C 144.101562 137.609375 144.105469 137.542969 144.109375 137.480469 C 144.117188 137.417969 144.125 137.359375 144.132812 137.300781 C 144.3125 136.308594 145.175781 135.550781 146.214844 135.550781 Z M 150.511719 137.675781 C 150.511719 135.292969 148.585938 133.367188 146.214844 133.367188 C 143.84375 133.367188 141.917969 135.292969 141.917969 137.675781 C 141.917969 138.527344 142.167969 139.320312 142.59375 139.988281 C 141.734375 144.441406 141.300781 149.007812 141.300781 153.574219 C 141.300781 155.140625 142.566406 156.414062 144.132812 156.414062 C 145.695312 156.414062 146.960938 155.140625 146.960938 153.574219 C 146.960938 149.539062 147.332031 145.507812 148.058594 141.566406 C 149.507812 140.875 150.511719 139.390625 150.511719 137.675781 " fill-opacity="1" fill-rule="nonzero"/><path fill="#54afe6" d="M 211.679688 113.417969 C 211.632812 113.367188 211.585938 113.316406 211.542969 113.265625 C 211.496094 113.210938 211.449219 113.148438 211.40625 113.085938 L 211.394531 113.074219 C 211.355469 113.015625 211.320312 112.957031 211.285156 112.894531 L 211.269531 112.871094 C 211.238281 112.8125 211.210938 112.753906 211.183594 112.695312 L 211.164062 112.660156 C 211.140625 112.601562 211.117188 112.542969 211.097656 112.484375 C 211.09375 112.46875 211.085938 112.453125 211.082031 112.441406 C 211.0625 112.382812 211.046875 112.324219 211.03125 112.269531 C 211.027344 112.25 211.023438 112.230469 211.019531 112.214844 C 211.007812 112.15625 210.996094 112.101562 210.988281 112.046875 C 210.984375 112.027344 210.980469 112.003906 210.976562 111.980469 C 210.972656 111.929688 210.964844 111.875 210.960938 111.824219 C 210.960938 111.796875 210.957031 111.773438 210.957031 111.746094 C 210.957031 111.695312 210.957031 111.644531 210.957031 111.59375 C 210.957031 111.566406 210.960938 111.539062 210.960938 111.511719 C 210.964844 111.464844 210.96875 111.417969 210.972656 111.367188 C 210.976562 111.335938 210.980469 111.304688 210.984375 111.277344 C 210.992188 111.230469 211 111.1875 211.007812 111.140625 C 211.015625 111.109375 211.023438 111.074219 211.03125 111.042969 C 211.042969 111 211.054688 110.957031 211.066406 110.917969 C 211.078125 110.882812 211.09375 110.847656 211.105469 110.8125 C 211.117188 110.773438 211.132812 110.734375 211.148438 110.699219 C 211.164062 110.660156 211.179688 110.625 211.199219 110.589844 C 211.214844 110.554688 211.230469 110.519531 211.246094 110.484375 C 211.269531 110.445312 211.292969 110.410156 211.316406 110.371094 C 211.332031 110.339844 211.351562 110.308594 211.371094 110.28125 C 211.398438 110.238281 211.429688 110.199219 211.460938 110.160156 C 211.476562 110.132812 211.496094 110.109375 211.515625 110.082031 C 211.5625 110.027344 211.613281 109.96875 211.664062 109.917969 L 211.679688 109.898438 C 211.699219 109.882812 211.71875 109.867188 211.734375 109.851562 C 211.773438 109.8125 211.8125 109.777344 211.851562 109.746094 C 211.910156 109.695312 211.972656 109.652344 212.03125 109.609375 C 213 108.945312 214.328125 109.039062 215.1875 109.898438 C 216.15625 110.871094 216.15625 112.445312 215.1875 113.417969 C 214.21875 114.386719 212.648438 114.386719 211.679688 113.417969 Z M 216.996094 108.085938 C 215.027344 106.113281 211.839844 106.113281 209.871094 108.085938 C 209.800781 108.160156 209.730469 108.234375 209.664062 108.308594 C 199.203125 107.886719 188.605469 109.828125 179.011719 113.917969 C 177.574219 114.53125 176.90625 116.199219 177.515625 117.644531 C 177.664062 117.988281 177.867188 118.289062 178.117188 118.539062 C 178.910156 119.335938 180.136719 119.613281 181.230469 119.144531 C 189.90625 115.445312 199.480469 113.660156 208.953125 113.96875 C 209.1875 114.421875 209.492188 114.847656 209.871094 115.230469 C 211.839844 117.203125 215.027344 117.203125 216.996094 115.230469 C 218.960938 113.257812 218.960938 110.058594 216.996094 108.085938 " fill-opacity="1" fill-rule="nonzero"/><path fill="#286291" d="M 172.828125 119.832031 C 173.652344 120.660156 173.652344 122.003906 172.828125 122.832031 C 172.585938 123.074219 172.304688 123.242188 172.003906 123.34375 C 171.824219 123.402344 171.636719 123.4375 171.449219 123.449219 L 171.421875 123.449219 C 171.296875 123.457031 171.171875 123.449219 171.042969 123.433594 C 171.023438 123.429688 171.003906 123.425781 170.980469 123.421875 C 170.949219 123.417969 170.914062 123.414062 170.882812 123.40625 C 170.855469 123.398438 170.824219 123.390625 170.796875 123.382812 C 170.757812 123.375 170.722656 123.363281 170.683594 123.351562 C 170.644531 123.339844 170.605469 123.324219 170.5625 123.308594 C 170.542969 123.300781 170.519531 123.289062 170.496094 123.28125 C 170.460938 123.265625 170.421875 123.246094 170.386719 123.230469 C 170.367188 123.21875 170.351562 123.210938 170.332031 123.203125 C 170.28125 123.175781 170.226562 123.144531 170.179688 123.113281 C 170.164062 123.101562 170.152344 123.09375 170.140625 123.085938 C 170.101562 123.058594 170.058594 123.027344 170.023438 122.996094 C 170.007812 122.988281 169.992188 122.976562 169.980469 122.964844 C 169.929688 122.921875 169.882812 122.878906 169.835938 122.832031 C 169.542969 122.542969 169.359375 122.183594 169.273438 121.808594 C 169.113281 121.121094 169.300781 120.367188 169.835938 119.832031 C 169.882812 119.785156 169.929688 119.742188 169.980469 119.703125 C 170.027344 119.664062 170.074219 119.628906 170.121094 119.59375 C 170.949219 119.015625 172.089844 119.09375 172.828125 119.832031 Z M 174.367188 124.378906 C 176.046875 122.699219 176.046875 119.96875 174.367188 118.285156 C 172.691406 116.601562 169.972656 116.601562 168.292969 118.285156 C 167.691406 118.890625 167.308594 119.625 167.136719 120.402344 C 163.394531 122.941406 159.867188 125.859375 156.648438 129.089844 C 155.542969 130.199219 155.542969 132 156.648438 133.105469 C 157.753906 134.214844 159.546875 134.214844 160.652344 133.105469 C 163.496094 130.253906 166.601562 127.664062 169.890625 125.394531 C 171.402344 125.933594 173.15625 125.59375 174.367188 124.378906 " fill-opacity="1" fill-rule="nonzero"/><g fill="#2c3587" fill-opacity="1"><g transform="translate(148.547968, 238.672924)"><g><path d="M 4.847656 -19.996094 C 2.523438 -19.996094 1.25 -18.75 1.25 -16.398438 L 1.25 -10.5 C 1.25 -10.023438 1.476562 -9.722656 1.925781 -9.574219 L 7.847656 -7.625 L 7.847656 -4.300781 C 7.847656 -3.625 7.5 -3.300781 6.847656 -3.300781 L 5.648438 -3.300781 C 5.023438 -3.300781 4.648438 -3.625 4.648438 -4.300781 L 4.648438 -6.222656 C 4.648438 -6.5 4.523438 -6.625 4.25 -6.625 L 1.648438 -6.625 C 1.398438 -6.625 1.25 -6.5 1.25 -6.222656 L 1.25 -3.601562 C 1.25 -1.25 2.523438 0 4.847656 0 L 7.648438 0 C 10 0 11.25 -1.25 11.25 -3.601562 L 11.25 -9.375 C 11.25 -9.847656 11.023438 -10.125 10.597656 -10.300781 L 4.648438 -12.25 L 4.648438 -15.699219 C 4.648438 -16.347656 5.023438 -16.699219 5.648438 -16.699219 L 6.847656 -16.699219 C 7.523438 -16.699219 7.847656 -16.347656 7.847656 -15.699219 L 7.847656 -13.75 C 7.847656 -13.5 8 -13.347656 8.25 -13.347656 L 10.847656 -13.347656 C 11.125 -13.347656 11.25 -13.5 11.25 -13.75 L 11.25 -16.398438 C 11.25 -18.75 10 -19.996094 7.648438 -19.996094 Z M 4.847656 -19.996094 "/></g></g></g><g fill="#2c3587" fill-opacity="1"><g transform="translate(164.721009, 238.672924)"><g><path d="M 1.25 -3.601562 C 1.25 -1.25 2.5 0 4.847656 0 L 7.648438 0 C 10 0 11.25 -1.25 11.25 -3.601562 L 11.25 -16.398438 C 11.25 -18.75 10 -19.996094 7.648438 -19.996094 L 4.847656 -19.996094 C 2.5 -19.996094 1.25 -18.75 1.25 -16.398438 Z M 5.574219 -3.226562 C 4.925781 -3.226562 4.574219 -3.550781 4.574219 -4.222656 L 4.574219 -15.773438 C 4.574219 -16.421875 4.925781 -16.773438 5.574219 -16.773438 L 7.023438 -16.773438 C 7.675781 -16.773438 8.023438 -16.421875 8.023438 -15.773438 L 8.023438 -4.222656 C 8.023438 -3.550781 7.675781 -3.226562 7.023438 -3.226562 Z M 5.574219 -3.226562 "/></g></g></g><g fill="#2c3587" fill-opacity="1"><g transform="translate(180.89405, 238.672924)"><g><path d="M 4.648438 -3.300781 L 10.597656 -3.300781 C 10.875 -3.300781 11 -3.148438 11 -2.898438 L 11 -0.398438 C 11 -0.125 10.875 0 10.597656 0 L 1.648438 0 C 1.398438 0 1.25 -0.125 1.25 -0.398438 L 1.25 -19.597656 C 1.25 -19.847656 1.398438 -19.996094 1.648438 -19.996094 L 4.25 -19.996094 C 4.523438 -19.996094 4.648438 -19.847656 4.648438 -19.597656 Z M 4.648438 -3.300781 "/></g></g></g><g fill="#2c3587" fill-opacity="1"><g transform="translate(196.81713, 238.672924)"><g><path d="M 8.449219 -19.996094 C 8.175781 -19.996094 7.949219 -19.773438 7.949219 -19.5 L 7.949219 -4.300781 C 7.949219 -3.625 7.597656 -3.300781 6.949219 -3.300781 L 5.648438 -3.300781 C 5 -3.300781 4.648438 -3.625 4.648438 -4.300781 L 4.648438 -19.5 C 4.648438 -19.773438 4.425781 -19.996094 4.148438 -19.996094 L 1.75 -19.996094 C 1.476562 -19.996094 1.25 -19.773438 1.25 -19.5 L 1.25 -3.601562 C 1.25 -1.25 2.5 0 4.847656 0 L 7.648438 0 C 10 0 11.25 -1.25 11.25 -3.601562 L 11.25 -19.5 C 11.25 -19.773438 11.023438 -19.996094 10.75 -19.996094 Z M 8.449219 -19.996094 "/></g></g></g><g fill="#2c3587" fill-opacity="1"><g transform="translate(212.99017, 238.672924)"><g><path d="M 8.425781 -10.199219 L 12.25 -19.398438 C 12.398438 -19.746094 12.273438 -19.996094 11.875 -19.996094 L 9.375 -19.996094 C 9.097656 -19.996094 8.898438 -19.898438 8.800781 -19.648438 L 6.472656 -13.722656 L 4.148438 -19.648438 C 4.050781 -19.898438 3.851562 -19.996094 3.574219 -19.996094 L 1.074219 -19.996094 C 0.675781 -19.996094 0.550781 -19.746094 0.699219 -19.398438 L 4.5 -10.199219 L 0.550781 -0.601562 C 0.398438 -0.25 0.523438 0 0.925781 0 L 3.5 0 C 3.773438 0 3.972656 -0.101562 4.074219 -0.351562 L 6.472656 -6.398438 L 8.875 -0.351562 C 8.972656 -0.101562 9.175781 0 9.449219 0 L 12.023438 0 C 12.421875 0 12.546875 -0.25 12.398438 -0.601562 Z M 8.425781 -10.199219 "/></g></g></g><g fill="#2c3587" fill-opacity="1"><g transform="translate(95.649534, 272.422921)"><g><path d="M 1.148438 -19.996094 C 0.898438 -19.996094 0.75 -19.847656 0.75 -19.597656 L 0.75 -17.097656 C 0.75 -16.847656 0.898438 -16.699219 1.148438 -16.699219 L 4.050781 -16.699219 L 4.050781 -0.398438 C 4.050781 -0.125 4.199219 0 4.449219 0 L 7.050781 0 C 7.324219 0 7.449219 -0.125 7.449219 -0.398438 L 7.449219 -16.699219 L 10.347656 -16.699219 C 10.625 -16.699219 10.75 -16.847656 10.75 -17.097656 L 10.75 -19.597656 C 10.75 -19.847656 10.625 -19.996094 10.347656 -19.996094 Z M 1.148438 -19.996094 "/></g></g></g><g fill="#2c3587" fill-opacity="1"><g transform="translate(110.822728, 272.422921)"><g><path d="M 11.222656 -19.597656 C 11.222656 -19.847656 11.125 -19.996094 10.824219 -19.996094 L 1.625 -19.996094 C 1.398438 -19.996094 1.25 -19.847656 1.25 -19.597656 L 1.25 -0.398438 C 1.25 -0.148438 1.398438 0 1.625 0 L 10.824219 0 C 11.125 0 11.222656 -0.148438 11.222656 -0.398438 L 11.222656 -2.898438 C 11.222656 -3.175781 11.125 -3.300781 10.824219 -3.300781 L 4.574219 -3.300781 L 4.574219 -8.347656 L 9.347656 -8.347656 C 9.597656 -8.347656 9.75 -8.5 9.75 -8.773438 L 9.75 -11.25 C 9.75 -11.523438 9.597656 -11.675781 9.347656 -11.675781 L 4.574219 -11.675781 L 4.574219 -16.671875 L 10.824219 -16.671875 C 11.125 -16.671875 11.222656 -16.847656 11.222656 -17.097656 Z M 11.222656 -19.597656 "/></g></g></g><g fill="#2c3587" fill-opacity="1"><g transform="translate(126.970776, 272.422921)"><g><path d="M 11.273438 -16.398438 C 11.273438 -18.75 10 -19.996094 7.675781 -19.996094 L 4.875 -19.996094 C 2.523438 -19.996094 1.25 -18.75 1.25 -16.398438 L 1.25 -3.601562 C 1.25 -1.25 2.523438 0 4.875 0 L 7.675781 0 C 10 0 11.273438 -1.25 11.273438 -3.601562 L 11.273438 -6.300781 C 11.273438 -6.550781 11.125 -6.699219 10.875 -6.699219 L 8.375 -6.699219 C 8.097656 -6.699219 7.972656 -6.550781 7.972656 -6.300781 L 7.972656 -4.300781 C 7.972656 -3.625 7.625 -3.300781 6.972656 -3.300781 L 5.675781 -3.300781 C 5.023438 -3.300781 4.675781 -3.625 4.675781 -4.300781 L 4.675781 -15.699219 C 4.675781 -16.347656 5 -16.699219 5.675781 -16.699219 L 6.972656 -16.699219 C 7.625 -16.699219 7.972656 -16.347656 7.972656 -15.699219 L 7.972656 -13.699219 C 7.972656 -13.449219 8.097656 -13.296875 8.375 -13.296875 L 10.875 -13.296875 C 11.125 -13.296875 11.273438 -13.449219 11.273438 -13.699219 Z M 11.273438 -16.398438 "/></g></g></g><g fill="#2c3587" fill-opacity="1"><g transform="translate(143.168811, 272.422921)"><g><path d="M 7.847656 -11.648438 L 4.648438 -11.648438 L 4.648438 -19.597656 C 4.648438 -19.847656 4.5 -19.996094 4.25 -19.996094 L 1.675781 -19.996094 C 1.375 -19.996094 1.25 -19.847656 1.25 -19.597656 L 1.25 -0.398438 C 1.25 -0.148438 1.375 0 1.675781 0 L 4.25 0 C 4.5 0 4.648438 -0.148438 4.648438 -0.398438 L 4.648438 -8.347656 L 7.847656 -8.347656 L 7.847656 -0.398438 C 7.847656 -0.148438 8 0 8.25 0 L 10.824219 0 C 11.125 0 11.25 -0.148438 11.25 -0.398438 L 11.25 -19.597656 C 11.25 -19.847656 11.125 -19.996094 10.824219 -19.996094 L 8.25 -19.996094 C 8 -19.996094 7.847656 -19.847656 7.847656 -19.597656 Z M 7.847656 -11.648438 "/></g></g></g><g fill="#2c3587" fill-opacity="1"><g transform="translate(159.341852, 272.422921)"><g><path d="M 8.925781 -19.996094 C 8.648438 -19.996094 8.523438 -19.847656 8.523438 -19.597656 L 8.523438 -9.050781 L 8.375 -9.050781 L 4.574219 -19.671875 C 4.5 -19.898438 4.347656 -19.996094 4.125 -19.996094 L 1.648438 -19.996094 C 1.398438 -19.996094 1.25 -19.847656 1.25 -19.597656 L 1.25 -0.398438 C 1.25 -0.148438 1.398438 0 1.648438 0 L 4.25 0 C 4.523438 0 4.648438 -0.148438 4.648438 -0.398438 L 4.648438 -11 L 4.773438 -11 L 8.597656 -0.324219 C 8.675781 -0.101562 8.824219 0 9.050781 0 L 11.523438 0 C 11.773438 0 11.921875 -0.148438 11.921875 -0.398438 L 11.921875 -19.597656 C 11.921875 -19.847656 11.773438 -19.996094 11.523438 -19.996094 Z M 8.925781 -19.996094 "/></g></g></g><g fill="#2c3587" fill-opacity="1"><g transform="translate(176.189786, 272.422921)"><g><path d="M 1.25 -3.601562 C 1.25 -1.25 2.5 0 4.847656 0 L 7.648438 0 C 10 0 11.25 -1.25 11.25 -3.601562 L 11.25 -16.398438 C 11.25 -18.75 10 -19.996094 7.648438 -19.996094 L 4.847656 -19.996094 C 2.5 -19.996094 1.25 -18.75 1.25 -16.398438 Z M 5.574219 -3.226562 C 4.925781 -3.226562 4.574219 -3.550781 4.574219 -4.222656 L 4.574219 -15.773438 C 4.574219 -16.421875 4.925781 -16.773438 5.574219 -16.773438 L 7.023438 -16.773438 C 7.675781 -16.773438 8.023438 -16.421875 8.023438 -15.773438 L 8.023438 -4.222656 C 8.023438 -3.550781 7.675781 -3.226562 7.023438 -3.226562 Z M 5.574219 -3.226562 "/></g></g></g><g fill="#2c3587" fill-opacity="1"><g transform="translate(192.362827, 272.422921)"><g><path d="M 4.648438 -3.300781 L 10.597656 -3.300781 C 10.875 -3.300781 11 -3.148438 11 -2.898438 L 11 -0.398438 C 11 -0.125 10.875 0 10.597656 0 L 1.648438 0 C 1.398438 0 1.25 -0.125 1.25 -0.398438 L 1.25 -19.597656 C 1.25 -19.847656 1.398438 -19.996094 1.648438 -19.996094 L 4.25 -19.996094 C 4.523438 -19.996094 4.648438 -19.847656 4.648438 -19.597656 Z M 4.648438 -3.300781 "/></g></g></g><g fill="#2c3587" fill-opacity="1"><g transform="translate(208.285906, 272.422921)"><g><path d="M 1.25 -3.601562 C 1.25 -1.25 2.5 0 4.847656 0 L 7.648438 0 C 10 0 11.25 -1.25 11.25 -3.601562 L 11.25 -16.398438 C 11.25 -18.75 10 -19.996094 7.648438 -19.996094 L 4.847656 -19.996094 C 2.5 -19.996094 1.25 -18.75 1.25 -16.398438 Z M 5.574219 -3.226562 C 4.925781 -3.226562 4.574219 -3.550781 4.574219 -4.222656 L 4.574219 -15.773438 C 4.574219 -16.421875 4.925781 -16.773438 5.574219 -16.773438 L 7.023438 -16.773438 C 7.675781 -16.773438 8.023438 -16.421875 8.023438 -15.773438 L 8.023438 -4.222656 C 8.023438 -3.550781 7.675781 -3.226562 7.023438 -3.226562 Z M 5.574219 -3.226562 "/></g></g></g><g fill="#2c3587" fill-opacity="1"><g transform="translate(224.458947, 272.422921)"><g><path d="M 1.25 -3.601562 C 1.25 -1.25 2.5 0 4.847656 0 L 8.148438 0 C 10.472656 0 11.75 -1.25 11.75 -3.601562 L 11.75 -10.550781 C 11.75 -10.824219 11.597656 -10.949219 11.347656 -10.949219 L 7.148438 -10.949219 C 6.875 -10.949219 6.75 -10.824219 6.75 -10.550781 L 6.75 -8.050781 C 6.75 -7.800781 6.875 -7.648438 7.148438 -7.648438 L 8.449219 -7.648438 L 8.449219 -4.300781 C 8.449219 -3.625 8.097656 -3.300781 7.449219 -3.300781 L 5.648438 -3.300781 C 5 -3.300781 4.648438 -3.625 4.648438 -4.300781 L 4.648438 -15.699219 C 4.648438 -16.347656 4.972656 -16.699219 5.648438 -16.699219 L 7.449219 -16.699219 C 8.097656 -16.699219 8.449219 -16.347656 8.449219 -15.699219 L 8.449219 -13.796875 C 8.449219 -13.546875 8.574219 -13.398438 8.847656 -13.398438 L 11.347656 -13.398438 C 11.597656 -13.398438 11.75 -13.546875 11.75 -13.796875 L 11.75 -16.398438 C 11.75 -18.75 10.472656 -19.996094 8.148438 -19.996094 L 4.847656 -19.996094 C 2.5 -19.996094 1.25 -18.75 1.25 -16.398438 Z M 1.25 -3.601562 "/></g></g></g><g fill="#2c3587" fill-opacity="1"><g transform="translate(241.131912, 272.422921)"><g><path d="M 1.648438 -19.996094 C 1.375 -19.996094 1.25 -19.847656 1.25 -19.597656 L 1.25 -0.398438 C 1.25 -0.148438 1.375 0 1.648438 0 L 4.25 0 C 4.5 0 4.648438 -0.148438 4.648438 -0.398438 L 4.648438 -19.597656 C 4.648438 -19.847656 4.5 -19.996094 4.25 -19.996094 Z M 1.648438 -19.996094 "/></g></g></g><g fill="#2c3587" fill-opacity="1"><g transform="translate(250.705992, 272.422921)"><g><path d="M 11.222656 -19.597656 C 11.222656 -19.847656 11.125 -19.996094 10.824219 -19.996094 L 1.625 -19.996094 C 1.398438 -19.996094 1.25 -19.847656 1.25 -19.597656 L 1.25 -0.398438 C 1.25 -0.148438 1.398438 0 1.625 0 L 10.824219 0 C 11.125 0 11.222656 -0.148438 11.222656 -0.398438 L 11.222656 -2.898438 C 11.222656 -3.175781 11.125 -3.300781 10.824219 -3.300781 L 4.574219 -3.300781 L 4.574219 -8.347656 L 9.347656 -8.347656 C 9.597656 -8.347656 9.75 -8.5 9.75 -8.773438 L 9.75 -11.25 C 9.75 -11.523438 9.597656 -11.675781 9.347656 -11.675781 L 4.574219 -11.675781 L 4.574219 -16.671875 L 10.824219 -16.671875 C 11.125 -16.671875 11.222656 -16.847656 11.222656 -17.097656 Z M 11.222656 -19.597656 "/></g></g></g><g fill="#2c3587" fill-opacity="1"><g transform="translate(266.85404, 272.422921)"><g><path d="M 4.847656 -19.996094 C 2.523438 -19.996094 1.25 -18.75 1.25 -16.398438 L 1.25 -10.5 C 1.25 -10.023438 1.476562 -9.722656 1.925781 -9.574219 L 7.847656 -7.625 L 7.847656 -4.300781 C 7.847656 -3.625 7.5 -3.300781 6.847656 -3.300781 L 5.648438 -3.300781 C 5.023438 -3.300781 4.648438 -3.625 4.648438 -4.300781 L 4.648438 -6.222656 C 4.648438 -6.5 4.523438 -6.625 4.25 -6.625 L 1.648438 -6.625 C 1.398438 -6.625 1.25 -6.5 1.25 -6.222656 L 1.25 -3.601562 C 1.25 -1.25 2.523438 0 4.847656 0 L 7.648438 0 C 10 0 11.25 -1.25 11.25 -3.601562 L 11.25 -9.375 C 11.25 -9.847656 11.023438 -10.125 10.597656 -10.300781 L 4.648438 -12.25 L 4.648438 -15.699219 C 4.648438 -16.347656 5.023438 -16.699219 5.648438 -16.699219 L 6.847656 -16.699219 C 7.523438 -16.699219 7.847656 -16.347656 7.847656 -15.699219 L 7.847656 -13.75 C 7.847656 -13.5 8 -13.347656 8.25 -13.347656 L 10.847656 -13.347656 C 11.125 -13.347656 11.25 -13.5 11.25 -13.75 L 11.25 -16.398438 C 11.25 -18.75 10 -19.996094 7.648438 -19.996094 Z M 4.847656 -19.996094 "/></g></g></g><path fill="#5271ff" d="M 250.152344 165.847656 C 249.757812 166.386719 248.996094 166.503906 248.457031 166.105469 C 247.914062 165.710938 247.796875 164.949219 248.191406 164.410156 C 248.589844 163.871094 249.351562 163.753906 249.890625 164.148438 C 249.757812 164.050781 249.621094 163.953125 249.890625 164.148438 C 249.988281 164.21875 250.035156 164.253906 250.042969 164.261719 C 250.027344 164.246094 249.960938 164.199219 249.894531 164.152344 C 250.433594 164.546875 250.550781 165.308594 250.152344 165.847656 Z M 247.507812 155.121094 C 248.179688 155.117188 248.722656 155.664062 248.722656 156.332031 C 248.722656 157.003906 248.179688 157.546875 247.507812 157.546875 C 246.839844 157.546875 246.292969 157.003906 246.292969 156.332031 C 246.292969 155.664062 246.835938 155.121094 247.507812 155.121094 Z M 250.113281 163.847656 C 249.515625 163.414062 248.71875 163.453125 248.171875 163.898438 L 245.792969 162.191406 L 233.585938 162.195312 L 236.714844 156.714844 L 245.964844 156.707031 C 246.136719 157.402344 246.761719 157.917969 247.507812 157.917969 C 248.382812 157.917969 249.097656 157.207031 249.097656 156.332031 C 249.09375 155.457031 248.382812 154.746094 247.507812 154.746094 C 246.761719 154.75 246.132812 155.269531 245.964844 155.960938 L 236.277344 155.96875 L 232.726562 162.199219 L 225.742188 162.203125 L 225.742188 163.339844 L 232.167969 167.796875 L 238.847656 167.792969 C 239.011719 168.386719 239.550781 168.820312 240.199219 168.820312 C 240.972656 168.820312 241.597656 168.191406 241.597656 167.417969 C 241.597656 166.644531 240.96875 166.019531 240.195312 166.019531 C 239.550781 166.019531 239.007812 166.453125 238.847656 167.046875 L 232.398438 167.050781 L 226.484375 162.949219 L 245.546875 162.933594 L 247.722656 164.492188 C 247.429688 165.160156 247.625 165.960938 248.234375 166.410156 C 248.941406 166.925781 249.933594 166.769531 250.453125 166.066406 C 250.972656 165.363281 250.820312 164.367188 250.113281 163.847656 " fill-opacity="1" fill-rule="nonzero"/><g clip-path="url(#id4)"><path fill="#5271ff" d="M 173.410156 164.152344 C 173.34375 164.199219 173.277344 164.246094 173.261719 164.261719 C 173.269531 164.253906 173.316406 164.21875 173.410156 164.148438 C 173.679688 163.953125 173.546875 164.050781 173.410156 164.148438 C 173.953125 163.753906 174.714844 163.871094 175.109375 164.410156 C 175.507812 164.949219 175.390625 165.710938 174.847656 166.105469 C 174.308594 166.503906 173.546875 166.386719 173.148438 165.847656 C 172.753906 165.308594 172.871094 164.546875 173.410156 164.152344 Z M 177.011719 156.332031 C 177.011719 157.003906 176.464844 157.546875 175.792969 157.546875 C 175.125 157.546875 174.578125 157.003906 174.582031 156.332031 C 174.582031 155.664062 175.125 155.117188 175.796875 155.121094 C 176.46875 155.121094 177.011719 155.664062 177.011719 156.332031 Z M 172.847656 166.066406 C 173.367188 166.769531 174.363281 166.925781 175.066406 166.410156 C 175.679688 165.960938 175.875 165.160156 175.582031 164.492188 L 177.753906 162.933594 L 196.820312 162.949219 L 190.902344 167.050781 L 184.457031 167.046875 C 184.292969 166.453125 183.753906 166.019531 183.109375 166.019531 C 182.332031 166.019531 181.707031 166.644531 181.707031 167.417969 C 181.703125 168.191406 182.332031 168.820312 183.105469 168.820312 C 183.75 168.820312 184.292969 168.386719 184.457031 167.792969 L 191.136719 167.796875 L 197.558594 163.339844 L 197.558594 162.203125 L 190.578125 162.199219 L 187.023438 155.96875 L 177.335938 155.960938 C 177.171875 155.269531 176.542969 154.75 175.796875 154.746094 C 174.921875 154.746094 174.207031 155.457031 174.207031 156.332031 C 174.207031 157.207031 174.917969 157.917969 175.792969 157.917969 C 176.542969 157.917969 177.167969 157.402344 177.335938 156.707031 L 186.589844 156.714844 L 189.714844 162.195312 L 177.511719 162.191406 L 175.132812 163.898438 C 174.585938 163.453125 173.785156 163.414062 173.191406 163.847656 C 172.484375 164.367188 172.332031 165.363281 172.847656 166.066406 " fill-opacity="1" fill-rule="nonzero"/></g><path fill="#5271ff" d="M 213.355469 192.664062 L 213.289062 176.152344 C 213.09375 176.15625 212.898438 176.152344 212.703125 176.148438 L 212.769531 192.671875 C 212.304688 192.804688 211.964844 193.234375 211.972656 193.742188 C 211.980469 194.351562 212.480469 194.839844 213.089844 194.832031 C 213.699219 194.824219 214.1875 194.324219 214.179688 193.714844 C 214.175781 193.207031 213.824219 192.789062 213.355469 192.664062 " fill-opacity="1" fill-rule="nonzero"/><path fill="#5271ff" d="M 220.292969 180.851562 C 219.933594 180.492188 219.390625 180.433594 218.964844 180.675781 L 218.214844 179.925781 L 218.285156 174.730469 C 218.101562 174.894531 217.90625 175.039062 217.691406 175.167969 L 217.628906 180.171875 L 218.554688 181.089844 C 218.316406 181.515625 218.375 182.058594 218.738281 182.414062 C 219.167969 182.84375 219.867188 182.84375 220.296875 182.410156 C 220.726562 181.980469 220.726562 181.277344 220.292969 180.851562 " fill-opacity="1" fill-rule="nonzero"/><path fill="#5271ff" d="M 215.621094 188.816406 C 215.09375 188.820312 214.65625 188.398438 214.652344 187.871094 C 214.644531 187.34375 215.070312 186.910156 215.597656 186.902344 C 216.125 186.894531 216.558594 187.320312 216.566406 187.847656 C 216.570312 188.375 216.148438 188.808594 215.621094 188.816406 Z M 215.890625 186.640625 L 215.882812 175.878906 C 215.691406 175.925781 215.496094 175.964844 215.296875 175.996094 L 215.300781 186.648438 C 214.753906 186.789062 214.351562 187.285156 214.359375 187.875 C 214.367188 188.5625 214.933594 189.117188 215.625 189.109375 C 216.3125 189.101562 216.867188 188.53125 216.859375 187.84375 C 216.851562 187.257812 216.4375 186.769531 215.890625 186.640625 " fill-opacity="1" fill-rule="nonzero"/><g clip-path="url(#id5)"><path fill="#5271ff" d="M 210.589844 194.761719 L 210.496094 175.980469 C 210.300781 175.960938 210.105469 175.933594 209.910156 175.90625 L 210 194.769531 C 209.535156 194.902344 209.195312 195.332031 209.203125 195.839844 C 209.207031 196.449219 209.710938 196.9375 210.320312 196.929688 C 210.929688 196.921875 211.417969 196.421875 211.414062 195.8125 C 211.40625 195.304688 211.058594 194.886719 210.589844 194.761719 " fill-opacity="1" fill-rule="nonzero"/></g><path fill="#5271ff" d="M 205.480469 175.085938 C 205.273438 175.042969 205.078125 175 204.894531 174.960938 L 204.835938 181.28125 L 204.101562 182.046875 C 203.675781 181.816406 203.132812 181.886719 202.78125 182.253906 C 202.355469 182.695312 202.371094 183.394531 202.8125 183.816406 C 203.25 184.234375 203.949219 184.222656 204.371094 183.78125 C 204.722656 183.414062 204.769531 182.867188 204.523438 182.453125 L 205.425781 181.515625 L 205.480469 175.085938 " fill-opacity="1" fill-rule="nonzero"/><path fill="#5271ff" d="M 207.667969 192.757812 C 207.140625 192.765625 206.707031 192.339844 206.703125 191.8125 C 206.695312 191.285156 207.117188 190.851562 207.648438 190.84375 C 208.175781 190.839844 208.609375 191.261719 208.617188 191.789062 C 208.621094 192.316406 208.199219 192.753906 207.667969 192.757812 Z M 207.9375 190.585938 L 207.890625 175.578125 C 207.691406 175.542969 207.496094 175.503906 207.304688 175.46875 L 207.351562 190.589844 C 206.804688 190.730469 206.402344 191.226562 206.40625 191.816406 C 206.414062 192.503906 206.984375 193.058594 207.671875 193.050781 C 208.363281 193.042969 208.917969 192.476562 208.910156 191.789062 C 208.902344 191.199219 208.488281 190.710938 207.9375 190.585938 " fill-opacity="1" fill-rule="nonzero"/><path fill="#5271ff" d="M 182.273438 148.847656 L 197.890625 156.8125 C 197.984375 156.628906 198.082031 156.445312 198.183594 156.261719 L 182.550781 148.289062 C 182.652344 147.785156 182.410156 147.257812 181.929688 147.015625 C 181.351562 146.726562 180.648438 146.960938 180.355469 147.539062 C 180.066406 148.117188 180.300781 148.820312 180.878906 149.109375 C 181.359375 149.351562 181.929688 149.226562 182.273438 148.847656 " fill-opacity="1" fill-rule="nonzero"/><path fill="#5271ff" d="M 184.804688 152.847656 C 185.058594 152.351562 185.667969 152.144531 186.167969 152.398438 C 186.667969 152.648438 186.871094 153.257812 186.621094 153.757812 C 186.371094 154.261719 185.761719 154.460938 185.257812 154.210938 C 184.757812 153.960938 184.554688 153.351562 184.804688 152.847656 Z M 186.726562 154.160156 L 196.886719 159.390625 C 196.9375 159.1875 196.996094 158.988281 197.0625 158.78125 L 187.003906 153.605469 C 187.140625 153.019531 186.867188 152.398438 186.308594 152.121094 C 185.652344 151.792969 184.855469 152.058594 184.527344 152.710938 C 184.199219 153.363281 184.464844 154.164062 185.117188 154.492188 C 185.679688 154.769531 186.339844 154.617188 186.726562 154.160156 " fill-opacity="1" fill-rule="nonzero"/><path fill="#5271ff" d="M 234.96875 140.144531 L 221.105469 151.207031 C 221.234375 151.371094 221.367188 151.535156 221.492188 151.703125 L 235.367188 140.632812 C 235.789062 140.9375 236.378906 140.933594 236.804688 140.589844 C 237.308594 140.179688 237.386719 139.433594 236.976562 138.925781 C 236.5625 138.417969 235.816406 138.339844 235.308594 138.753906 C 234.886719 139.09375 234.761719 139.667969 234.96875 140.144531 " fill-opacity="1" fill-rule="nonzero"/><path fill="#5271ff" d="M 220.394531 142.1875 C 220.332031 142.730469 220.648438 143.226562 221.128906 143.417969 L 221 144.550781 L 216.578125 147.957031 C 216.835938 148.003906 217.089844 148.070312 217.339844 148.164062 L 221.597656 144.878906 L 221.757812 143.488281 C 222.269531 143.410156 222.6875 142.996094 222.75 142.457031 C 222.824219 141.804688 222.355469 141.21875 221.707031 141.144531 C 221.054688 141.070312 220.46875 141.539062 220.394531 142.1875 " fill-opacity="1" fill-rule="nonzero"/><path fill="#5271ff" d="M 230.21875 140.808594 C 230.578125 141.25 230.507812 141.898438 230.070312 142.253906 C 229.628906 142.609375 228.980469 142.542969 228.625 142.101562 C 228.265625 141.664062 228.335938 141.015625 228.773438 140.65625 C 229.214844 140.300781 229.863281 140.367188 230.21875 140.808594 Z M 228.210938 142.03125 L 219.144531 149.207031 C 219.3125 149.339844 219.472656 149.476562 219.636719 149.625 L 228.609375 142.519531 C 229.089844 142.886719 229.777344 142.894531 230.269531 142.496094 C 230.84375 142.03125 230.929688 141.183594 230.464844 140.609375 C 229.996094 140.035156 229.152344 139.949219 228.574219 140.414062 C 228.085938 140.8125 227.949219 141.484375 228.210938 142.03125 " fill-opacity="1" fill-rule="nonzero"/><path fill="#5271ff" d="M 238.582031 141.074219 L 222.824219 153.667969 C 222.933594 153.851562 223.042969 154.03125 223.152344 154.214844 L 238.980469 141.5625 C 239.40625 141.867188 239.992188 141.863281 240.417969 141.519531 C 240.925781 141.109375 241.003906 140.363281 240.589844 139.851562 C 240.175781 139.347656 239.429688 139.269531 238.921875 139.679688 C 238.5 140.023438 238.375 140.597656 238.582031 141.074219 " fill-opacity="1" fill-rule="nonzero"/><path fill="#5271ff" d="M 225.410156 158.484375 C 225.511719 158.6875 225.605469 158.878906 225.695312 159.058594 L 231.0625 154.894531 L 232.199219 155.003906 C 232.289062 155.515625 232.707031 155.925781 233.25 155.976562 C 233.902344 156.039062 234.480469 155.558594 234.542969 154.910156 C 234.605469 154.257812 234.128906 153.679688 233.476562 153.621094 C 232.933594 153.566406 232.441406 153.890625 232.253906 154.375 L 230.863281 154.246094 L 225.410156 158.484375 " fill-opacity="1" fill-rule="nonzero"/><path fill="#5271ff" d="M 238.84375 144.863281 C 239.199219 145.304688 239.132812 145.953125 238.691406 146.308594 C 238.25 146.664062 237.601562 146.597656 237.246094 146.15625 C 236.886719 145.71875 236.957031 145.070312 237.394531 144.714844 C 237.835938 144.359375 238.484375 144.425781 238.84375 144.863281 Z M 236.832031 146.085938 L 224.21875 156.128906 C 224.320312 156.320312 224.421875 156.511719 224.515625 156.695312 L 237.226562 146.574219 C 237.710938 146.945312 238.398438 146.949219 238.886719 146.550781 C 239.464844 146.085938 239.550781 145.238281 239.085938 144.664062 C 238.621094 144.09375 237.773438 144.003906 237.199219 144.46875 C 236.707031 144.867188 236.570312 145.539062 236.832031 146.085938 " fill-opacity="1" fill-rule="nonzero"/><g clip-path="url(#id6)"><path fill="#5271ff" d="M 212.9375 131.113281 C 212.40625 131.351562 211.785156 131.113281 211.546875 130.589844 C 211.308594 130.058594 211.546875 129.4375 212.074219 129.199219 C 212.601562 128.960938 213.222656 129.199219 213.460938 129.726562 C 213.699219 130.253906 213.464844 130.875 212.9375 131.113281 Z M 209.886719 121.4375 C 209.699219 120.796875 209.027344 120.425781 208.382812 120.613281 C 207.742188 120.796875 207.371094 121.46875 207.558594 122.109375 C 207.710938 122.644531 208.203125 122.988281 208.734375 122.984375 L 209.941406 127.144531 L 206.289062 131.660156 L 208.644531 137.101562 L 204.648438 142.234375 L 206.410156 147.605469 L 214.492188 147.609375 L 218.441406 142.535156 L 213.347656 131.238281 C 213.835938 130.855469 214.019531 130.179688 213.757812 129.59375 C 213.785156 129.65625 213.8125 129.714844 213.828125 129.753906 C 213.8125 129.722656 213.792969 129.675781 213.757812 129.59375 C 213.699219 129.46875 213.675781 129.414062 213.667969 129.398438 C 213.675781 129.417969 213.71875 129.503906 213.757812 129.59375 C 213.445312 128.902344 212.628906 128.597656 211.941406 128.90625 C 211.25 129.21875 210.941406 130.03125 211.253906 130.71875 C 211.519531 131.308594 212.152344 131.617188 212.761719 131.503906 L 217.695312 142.449219 L 214.179688 146.964844 L 206.878906 146.960938 L 205.367188 142.359375 L 209.386719 137.195312 L 207.035156 131.761719 L 207.925781 130.65625 L 211.09375 136.984375 L 206.671875 142.664062 L 208.046875 145.53125 L 213.398438 145.523438 L 215.742188 142.5 L 215.046875 140.894531 C 215.460938 140.5625 215.625 139.984375 215.402344 139.472656 C 215.140625 138.859375 214.425781 138.578125 213.8125 138.839844 C 213.195312 139.105469 212.914062 139.816406 213.179688 140.429688 C 213.398438 140.945312 213.929688 141.222656 214.457031 141.148438 L 215 142.40625 L 213.097656 144.863281 L 208.460938 144.910156 L 207.421875 142.746094 L 211.851562 137.0625 L 208.371094 130.109375 L 210.652344 127.289062 L 209.355469 122.804688 C 209.808594 122.527344 210.039062 121.972656 209.886719 121.4375 " fill-opacity="1" fill-rule="nonzero"/></g><path fill="#5271ff" d="M 191.296875 137.96875 C 191.050781 138.519531 190.40625 138.769531 189.855469 138.523438 C 189.300781 138.28125 189.050781 137.632812 189.296875 137.082031 C 189.542969 136.53125 190.191406 136.28125 190.742188 136.527344 C 191.292969 136.769531 191.542969 137.417969 191.296875 137.96875 Z M 182.195312 132.574219 C 181.605469 132.203125 180.828125 132.382812 180.457031 132.972656 C 180.089844 133.566406 180.265625 134.339844 180.855469 134.710938 C 181.347656 135.019531 181.972656 134.945312 182.378906 134.570312 L 186.210938 136.96875 L 186.515625 143.007812 L 192.132812 145.597656 L 192.601562 152.359375 L 197.707031 155.304688 L 203.984375 149.699219 L 203.523438 143.015625 L 191.703125 137.777344 C 191.816406 137.144531 191.492188 136.492188 190.878906 136.21875 C 190.941406 136.25 191.003906 136.273438 191.046875 136.292969 C 191.015625 136.28125 190.960938 136.253906 190.878906 136.21875 C 190.75 136.160156 190.691406 136.136719 190.671875 136.128906 C 190.695312 136.136719 190.785156 136.179688 190.878906 136.21875 C 190.15625 135.898438 189.308594 136.226562 188.988281 136.945312 C 188.667969 137.664062 188.996094 138.511719 189.71875 138.832031 C 190.335938 139.105469 191.042969 138.902344 191.433594 138.390625 L 202.878906 143.464844 L 203.292969 149.417969 L 197.621094 154.480469 L 193.246094 151.957031 L 192.777344 145.15625 L 187.167969 142.566406 L 187.09375 141.09375 L 193.953125 143.808594 L 194.46875 151.289062 L 197.53125 152.5625 L 201.679688 148.839844 L 201.398438 144.863281 L 199.742188 144.097656 C 199.835938 143.550781 199.558594 142.992188 199.03125 142.746094 C 198.398438 142.453125 197.648438 142.730469 197.351562 143.363281 C 197.0625 143.996094 197.335938 144.742188 197.96875 145.035156 C 198.496094 145.28125 199.105469 145.128906 199.460938 144.707031 L 200.753906 145.304688 L 200.988281 148.535156 L 197.421875 151.789062 L 195.109375 150.828125 L 194.59375 143.339844 L 187.054688 140.355469 L 186.863281 136.582031 L 182.734375 134 C 182.894531 133.472656 182.6875 132.882812 182.195312 132.574219 " fill-opacity="1" fill-rule="nonzero"/><path fill="#5271ff" d="M 233.652344 183.828125 C 233.839844 183.257812 234.457031 182.941406 235.03125 183.132812 C 235.605469 183.320312 235.917969 183.9375 235.730469 184.511719 C 235.542969 185.082031 234.921875 185.394531 234.347656 185.207031 C 233.773438 185.019531 233.460938 184.402344 233.652344 183.828125 Z M 243.246094 188.289062 C 243.871094 188.59375 244.628906 188.339844 244.9375 187.714844 C 245.246094 187.089844 244.992188 186.335938 244.367188 186.027344 C 243.84375 185.769531 243.234375 185.90625 242.863281 186.316406 L 238.8125 184.316406 L 237.90625 178.339844 L 232.054688 176.320312 L 230.914062 169.640625 L 225.539062 167.21875 L 219.851562 173.425781 L 220.980469 180.03125 L 233.265625 184.058594 C 233.214844 184.699219 233.605469 185.316406 234.242188 185.527344 C 234.175781 185.503906 234.109375 185.484375 234.070312 185.46875 C 234.101562 185.480469 234.15625 185.5 234.242188 185.527344 C 234.378906 185.570312 234.441406 185.589844 234.457031 185.597656 C 234.433594 185.589844 234.339844 185.558594 234.242188 185.527344 C 234.996094 185.773438 235.804688 185.363281 236.050781 184.617188 C 236.296875 183.867188 235.886719 183.058594 235.136719 182.8125 C 234.496094 182.601562 233.8125 182.871094 233.472656 183.421875 L 221.574219 179.515625 L 220.570312 173.636719 L 225.707031 168.03125 L 230.3125 170.105469 L 231.460938 176.824219 L 237.300781 178.839844 L 237.523438 180.300781 L 230.425781 178.285156 L 229.160156 170.894531 L 225.988281 169.933594 L 222.230469 174.050781 L 222.910156 177.980469 L 224.632812 178.574219 C 224.597656 179.128906 224.929688 179.65625 225.480469 179.847656 C 226.136719 180.074219 226.855469 179.726562 227.085938 179.070312 C 227.3125 178.410156 226.964844 177.691406 226.304688 177.464844 C 225.753906 177.273438 225.164062 177.484375 224.851562 177.941406 L 223.503906 177.476562 L 222.949219 174.285156 L 226.175781 170.691406 L 228.570312 171.414062 L 229.835938 178.8125 L 237.632812 181.027344 L 238.203125 184.765625 L 242.566406 186.917969 C 242.460938 187.460938 242.726562 188.03125 243.246094 188.289062 " fill-opacity="1" fill-rule="nonzero"/><path fill="#5271ff" d="M 189.503906 184.773438 C 188.957031 184.957031 188.359375 184.664062 188.175781 184.113281 C 187.988281 183.566406 188.285156 182.96875 188.835938 182.785156 C 189.382812 182.601562 189.980469 182.898438 190.164062 183.445312 C 190.351562 183.992188 190.054688 184.589844 189.503906 184.773438 Z M 181.628906 186.472656 L 185.804688 184.375 L 186.324219 180.785156 L 193.792969 178.605469 L 194.953125 171.5 L 197.25 170.789062 L 200.367188 174.214844 L 199.855469 177.28125 L 198.566406 177.738281 C 198.261719 177.300781 197.695312 177.101562 197.171875 177.289062 C 196.539062 177.511719 196.210938 178.203125 196.433594 178.832031 C 196.65625 179.460938 197.347656 179.792969 197.976562 179.570312 C 198.503906 179.382812 198.820312 178.871094 198.78125 178.34375 L 200.429688 177.757812 L 201.058594 173.984375 L 197.421875 170.058594 L 194.382812 171.003906 L 193.222656 178.101562 L 186.425781 180.085938 L 186.628906 178.683594 L 192.21875 176.710938 L 193.277344 170.253906 L 197.679688 168.230469 L 202.648438 173.578125 L 201.722656 179.226562 L 190.332031 183.054688 C 190.003906 182.527344 189.347656 182.277344 188.730469 182.480469 C 188.015625 182.722656 187.628906 183.5 187.871094 184.21875 C 188.109375 184.933594 188.890625 185.320312 189.605469 185.082031 C 189.515625 185.113281 189.425781 185.140625 189.40625 185.148438 C 189.421875 185.144531 189.480469 185.125 189.605469 185.082031 C 189.691406 185.050781 189.742188 185.035156 189.777344 185.023438 C 189.734375 185.039062 189.671875 185.058594 189.605469 185.082031 C 190.21875 184.875 190.589844 184.28125 190.535156 183.664062 L 202.296875 179.710938 L 203.335938 173.371094 L 197.835938 167.453125 L 192.691406 169.8125 L 191.644531 176.230469 L 186.046875 178.207031 L 185.214844 183.949219 L 181.339844 185.898438 C 180.984375 185.503906 180.398438 185.378906 179.898438 185.628906 C 179.300781 185.929688 179.058594 186.65625 179.363281 187.253906 C 179.664062 187.847656 180.390625 188.089844 180.988281 187.789062 C 181.484375 187.539062 181.734375 186.992188 181.628906 186.472656 " fill-opacity="1" fill-rule="nonzero"/><path fill="#5271ff" d="M 211.546875 147.878906 C 203.867188 147.878906 197.625 154.117188 197.625 161.785156 C 197.625 169.453125 203.867188 175.691406 211.546875 175.691406 C 219.222656 175.691406 225.46875 169.453125 225.46875 161.785156 C 225.46875 154.117188 219.222656 147.878906 211.546875 147.878906 Z M 211.546875 176.808594 C 203.253906 176.808594 196.503906 170.066406 196.503906 161.785156 C 196.503906 153.5 203.253906 146.761719 211.546875 146.761719 C 219.839844 146.761719 226.585938 153.5 226.585938 161.785156 C 226.585938 170.066406 219.839844 176.808594 211.546875 176.808594 " fill-opacity="1" fill-rule="nonzero"/></svg>